<svg width="231" height="285" viewBox="0 0 231 285" fill="none" xmlns="http://www.w3.org/2000/svg">
<path d="M226.891 71.4524C224.041 64.8401 220.027 58.929 215.085 54.0684L176.585 15.3106C168.111 6.6863 157.352 1.33773 145.914 0.0639746H66.8611C58.3598 -0.3363 49.8718 1.14481 41.8909 4.42111C33.91 7.69741 26.5957 12.7035 20.3737 19.1479C14.1516 25.5924 9.14607 33.3465 5.64836 41.9591C2.15064 50.5717 0.230609 59.8707 0 69.315V216.082C0.453986 230.324 4.74436 244.088 12.3167 255.595C19.8891 267.101 30.3954 275.822 42.478 280.63C50.3333 283.946 58.726 285.402 67.1178 284.905H164.137C172.638 285.305 181.126 283.824 189.107 280.548C197.088 277.272 204.402 272.266 210.624 265.821C216.846 259.377 221.852 251.623 225.35 243.01C228.847 234.397 230.767 225.098 230.998 215.654V93.5386C231.06 85.936 229.66 78.4062 226.891 71.4524ZM60.0595 65.7527H101.896C105.299 65.7527 108.564 67.254 110.97 69.9262C113.377 72.5984 114.729 76.2228 114.729 80.0019C114.729 83.781 113.377 87.4053 110.97 90.0776C108.564 92.7498 105.299 94.2511 101.896 94.2511H60.0595C56.6559 94.2511 53.3917 92.7498 50.985 90.0776C48.5783 87.4053 47.2263 83.781 47.2263 80.0019C47.2263 76.2228 48.5783 72.5984 50.985 69.9262C53.3917 67.254 56.6559 65.7527 60.0595 65.7527ZM171.709 218.361H60.0595C56.6559 218.361 53.3917 216.86 50.985 214.188C48.5783 211.516 47.2263 207.891 47.2263 204.112C47.2263 200.333 48.5783 196.709 50.985 194.037C53.3917 191.364 56.6559 189.863 60.0595 189.863H171.709C174.768 190.347 177.567 192.04 179.592 194.632C181.617 197.223 182.731 200.539 182.731 203.97C182.731 207.401 181.617 210.716 179.592 213.308C177.567 215.899 174.768 217.592 171.709 218.076V218.361ZM171.709 156.378H60.0595C56.6559 156.378 53.3917 154.876 50.985 152.204C48.5783 149.532 47.2263 145.907 47.2263 142.128C47.2263 138.349 48.5783 134.725 50.985 132.053C53.3917 129.38 56.6559 127.879 60.0595 127.879H171.709C175.112 127.879 178.376 129.38 180.783 132.053C183.19 134.725 184.542 138.349 184.542 142.128C184.542 145.907 183.19 149.532 180.783 152.204C178.376 154.876 175.112 156.378 171.709 156.378ZM167.602 77.0096C165.771 77.0284 163.955 76.6442 162.259 75.8793C160.562 75.1143 159.019 73.9838 157.718 72.5529C156.418 71.122 155.385 69.4191 154.681 67.5427C153.976 65.6663 153.614 63.6534 153.614 61.6204V23.8601C162.084 26.14 195.065 63.7578 202.252 70.0275C204.377 72.0155 206.197 74.3736 207.642 77.0096H167.602Z" fill="#968CA2"/>
</svg>
